<svg xmlns="http://www.w3.org/2000/svg" width="19.658" height="20.25" viewBox="0 0 19.658 20.25">
  <g id="Слой_2" data-name="Слой 2" transform="translate(-0.181 -0.255)">
    <g id="_лой_1" data-name="—лой_1" transform="translate(0.32 0.38)">
      <path id="Path_7281" data-name="Path 7281" d="M24.815,6.2a.875.875,0,1,0,0,1.751.973.973,0,0,0,.263-.04.881.881,0,0,0,.612-.835V7a.881.881,0,0,0-.875-.8Zm.092,1.144a.235.235,0,0,1-.092,0,.3.3,0,0,1,0-.572.3.3,0,0,1,.3.275h0a.3.3,0,0,1-.206.309Z" transform="translate(-10.428 -2.87)" fill="#999" stroke="#999" stroke-miterlimit="10" stroke-width="0.25"/>
      <path id="Path_7282" data-name="Path 7282" d="M17.871,6.165a.572.572,0,0,0,.137-.807L15.834,2.269a.569.569,0,0,0-.818-.16l-7.4,5.234a1.716,1.716,0,0,0-.692,1.676l-.749.526a1.493,1.493,0,0,0-.624,1.407.573.573,0,0,0,.509.5.572.572,0,0,0,0,.3.606.606,0,0,0,.292.349,1.533,1.533,0,0,0,.675.154,1.482,1.482,0,0,0,.858-.269l.755-.532a1.716,1.716,0,0,0,.835.223,1.625,1.625,0,0,0,.955-.309l5.149-3.627a5.006,5.006,0,0,1-.149,4.88,4.96,4.96,0,0,1-4.21,2.574A3.873,3.873,0,0,1,9.965,15a1.5,1.5,0,0,0-2.546-.252H4.908L2.8,11.09a1.493,1.493,0,0,0,0-.275,1.241,1.241,0,1,0-1.59,1.19l2.357,4.079a.572.572,0,0,0,.572.469H7.391a8.455,8.455,0,0,0-5.784,3.633.571.571,0,0,0,.481.887H15.194a.572.572,0,0,0,.481-.91,8.478,8.478,0,0,0-3.255-2.86,7.345,7.345,0,0,0,4.994-3.593A7.168,7.168,0,0,0,17.459,6.4Zm-.961,7.277a6.647,6.647,0,0,1-5.663,3.432,5.532,5.532,0,0,1-1.956-.355v.572A7.946,7.946,0,0,1,15.2,20.524H2.088A7.946,7.946,0,0,1,8,17.091V16.3a.967.967,0,0,1-.212-.332H4.17v-.063L1.607,11.473h0a.664.664,0,1,1,.572-.326l2.4,4.182H7.785a.915.915,0,0,1,1.756.12,4.531,4.531,0,0,0,1.716.332,5.549,5.549,0,0,0,4.714-2.86,5.475,5.475,0,0,0-.195-6l-5.646,4a1.093,1.093,0,0,1-.635.206,1.11,1.11,0,0,1-.818-.366l-1.1.749a.938.938,0,0,1-.526.166.927.927,0,0,1-.412-.1.475.475,0,0,0-.069-.481.492.492,0,0,0-.383-.229H6.138a.915.915,0,0,1,.383-.858l1.1-.778a1.1,1.1,0,0,1,.332-1.424l7.391-5.212L17.522,5.69l-.864.612a6.556,6.556,0,0,1,.252,7.139Z" transform="translate(-0.32 -1.073)" fill="#999" stroke="#999" stroke-miterlimit="10" stroke-width="0.25"/>
      <path id="Path_7283" data-name="Path 7283" d="M31.381,2.331a1.791,1.791,0,0,0-.338-.95A1.59,1.59,0,0,0,29.808.66H29.67a1.676,1.676,0,0,0-.95-.28,1.636,1.636,0,0,0-.847.229.581.581,0,0,0-.183.835l2.168,3.078a.572.572,0,0,0,.4.24h.074a.572.572,0,0,0,.349-.132,1.67,1.67,0,0,0,.572-1.716,1.241,1.241,0,0,0,.126-.584ZM30.334,4.167,28.166,1.112a1.087,1.087,0,0,1,.572-.154,1.1,1.1,0,0,1,.8.349h0a.44.44,0,0,1,.257-.074,1.007,1.007,0,0,1,.761.475c.292.412.309.9.034,1.093h0a1.1,1.1,0,0,1-.257,1.367Z" transform="translate(-11.987 -0.38)" fill="#999" stroke="#999" stroke-miterlimit="10" stroke-width="0.25"/>
    </g>
  </g>
</svg>
