<svg xmlns="http://www.w3.org/2000/svg" width="16.299" height="21" viewBox="0 0 16.299 21">
  <g id="Слой_2" data-name="Слой 2" transform="translate(0 0)">
    <g id="_лой_1" data-name="—лой_1" transform="translate(0.5 0.5)">
      <path id="Path_7284" data-name="Path 7284" d="M8.228,24.752,6.428,28.7,4.07,26.164l-3.43.624,1.7-5.388" transform="translate(-0.555 -8.733)" fill="none" stroke="#0b7abf" stroke-linecap="round" stroke-linejoin="round" stroke-width="1"/>
      <path id="Path_7285" data-name="Path 7285" d="M12.57,23.919l2.055,4.818,2.212-2.782,3.533.745L18.5,21.41" transform="translate(-5.255 -8.737)" fill="none" stroke="#0b7abf" stroke-linecap="round" stroke-linejoin="round" stroke-width="1"/>
      <path id="Path_7286" data-name="Path 7286" d="M9.21,3.38A5.848,5.848,0,1,1,3.38,9.21,5.848,5.848,0,0,1,9.21,3.38Z" transform="translate(-1.635 -1.635)" fill="none" stroke="#0b7abf" stroke-linecap="round" stroke-linejoin="round" stroke-width="1"/>
      <path id="Path_7287" data-name="Path 7287" d="M8.076.5A7.594,7.594,0,1,1,.5,8.076,7.594,7.594,0,0,1,8.076.5Z" transform="translate(-0.5 -0.5)" fill="none" stroke="#0b7abf" stroke-linecap="round" stroke-linejoin="round" stroke-width="1"/>
      <path id="Path_7288" data-name="Path 7288" d="M8.83,12.152l1.685,1.9L14.254,9.8" transform="translate(-3.781 -4.164)" fill="none" stroke="#0b7abf" stroke-linecap="round" stroke-linejoin="round" stroke-width="1"/>
    </g>
  </g>
</svg>
