<svg xmlns="http://www.w3.org/2000/svg" width="47.2" height="40" viewBox="0 0 47.2 40">
  <path id="Path_21678" data-name="Path 21678" d="M.767,25.294H46.433v3.9a.918.918,0,0,1-.919.918H28.5a.387.387,0,0,0-.271.112.4.4,0,0,0-.113.272v3.336a.452.452,0,0,1-.01.1.387.387,0,0,0,.01.174s0,.007,0,.014a.467.467,0,0,1-.112.117,2.248,2.248,0,0,1-.594.3,8.173,8.173,0,0,1-1.623.372,16.861,16.861,0,0,1-4.051.041,10.74,10.74,0,0,1-1.171-.193,6.44,6.44,0,0,1-.7-.193,2.4,2.4,0,0,1-.659-.322.451.451,0,0,1-.118-.117.076.076,0,0,1-.01-.021.353.353,0,0,0,.007-.174.716.716,0,0,1-.01-.1V30.5a.388.388,0,0,0-.112-.272.381.381,0,0,0-.269-.112H1.686a.918.918,0,0,1-.919-.918v-3.9Zm30.8,9.908a3.675,3.675,0,0,1,.528.661,1.425,1.425,0,0,1,.13.267.538.538,0,0,1,.034.177.982.982,0,0,1-.134.482,1.843,1.843,0,0,1-.372.451,4.767,4.767,0,0,1-1.231.781,12.819,12.819,0,0,1-3,.88,22.092,22.092,0,0,1-3.924.334,22.76,22.76,0,0,1-3.46-.255,16.047,16.047,0,0,1-2.182-.484,7.381,7.381,0,0,1-2.277-1.057,2.3,2.3,0,0,1-.567-.587,1.24,1.24,0,0,1-.132-.277.852.852,0,0,1-.041-.267.539.539,0,0,1,.063-.231,1.551,1.551,0,0,1,.186-.294,4.117,4.117,0,0,1,.616-.6,8.893,8.893,0,0,1,1.392-.89,10.469,10.469,0,0,1,1.112-.5v.038a1.1,1.1,0,0,0,.012.153.618.618,0,0,0-.012.117.773.773,0,0,0,.051.272,1.013,1.013,0,0,0,.276.393,2.077,2.077,0,0,0,.356.251,4.3,4.3,0,0,0,.828.338,10.067,10.067,0,0,0,1.686.339,16.849,16.849,0,0,0,2.092.124,17.18,17.18,0,0,0,1.95-.107,11.708,11.708,0,0,0,1.251-.205,6.688,6.688,0,0,0,.779-.22,3.046,3.046,0,0,0,.879-.439,1.2,1.2,0,0,0,.3-.313.905.905,0,0,0,.1-.2.81.81,0,0,0,.037-.231.594.594,0,0,0-.012-.117,1.052,1.052,0,0,0,.012-.153V33.4a7.832,7.832,0,0,1,.884.439A8.29,8.29,0,0,1,31.567,35.2M46.817,7.851a.385.385,0,0,0,.384-.384V1.685A1.685,1.685,0,0,0,45.515,0H1.686A1.686,1.686,0,0,0,0,1.685V29.193a1.686,1.686,0,0,0,1.686,1.684H18.311v2.1a10.959,10.959,0,0,0-2.629,1.341,5.476,5.476,0,0,0-1.043.928,2.272,2.272,0,0,0-.327.5,1.323,1.323,0,0,0-.137.556,1.729,1.729,0,0,0,.235.854,2.661,2.661,0,0,0,.515.642,5.464,5.464,0,0,0,1.437.912,13.5,13.5,0,0,0,3.177.94A23.063,23.063,0,0,0,23.6,40a23.4,23.4,0,0,0,3.575-.265,16.615,16.615,0,0,0,2.285-.506,8.1,8.1,0,0,0,2.519-1.181,3.037,3.037,0,0,0,.755-.79,2.1,2.1,0,0,0,.215-.456,1.786,1.786,0,0,0,.076-.5,1.467,1.467,0,0,0-.132-.563,2.584,2.584,0,0,0-.271-.473,5.4,5.4,0,0,0-.728-.821,9.507,9.507,0,0,0-1.52-1.143,8.588,8.588,0,0,0-1.486-.723V30.877H45.515A1.685,1.685,0,0,0,47.2,29.193V13.6a.384.384,0,0,0-.767,0V24.528H.767V1.685A.919.919,0,0,1,1.686.766H45.515a.919.919,0,0,1,.919.919V7.467a.385.385,0,0,0,.384.384" fill="#14333f"/>
</svg>
