<svg xmlns="http://www.w3.org/2000/svg" width="20.394" height="21" viewBox="0 0 20.394 21">
  <g id="Слой_2" data-name="Слой 2" transform="translate(-0.5 -0.5)">
    <g id="_лой_1" data-name="—лой_1" transform="translate(1 1)">
      <path id="Path_7274" data-name="Path 7274" d="M23.359,27.82a.479.479,0,0,1,.485.479.485.485,0,0,1-.485.485.482.482,0,0,1,0-.964Z" transform="translate(-9.619 -11.565)" fill="none" stroke="#238495" stroke-linecap="round" stroke-linejoin="round" stroke-width="1"/>
      <line id="Line_187" data-name="Line 187" y1="1.727" transform="translate(13.739 16.867)" fill="none" stroke="#238495" stroke-linecap="round" stroke-linejoin="round" stroke-width="1"/>
      <path id="Path_7275" data-name="Path 7275" d="M18.593,23h5.758a.527.527,0,0,1,.527.527v4.358a1.77,1.77,0,0,1-1.764,1.782H19.854A1.77,1.77,0,0,1,18.09,27.9V23.545a.527.527,0,0,1,.527-.527Z" transform="translate(-7.732 -9.667)" fill="none" stroke="#238495" stroke-linecap="round" stroke-linejoin="round" stroke-width="1"/>
      <path id="Path_7276" data-name="Path 7276" d="M18.291,16.273h2.1V1H1V16.273H11.358" transform="translate(-1 -1)" fill="none" stroke="#238495" stroke-linecap="round" stroke-linejoin="round" stroke-width="1"/>
      <line id="Line_188" data-name="Line 188" x1="19.073" transform="translate(0 3.461)" fill="none" stroke="#238495" stroke-linecap="round" stroke-linejoin="round" stroke-width="1"/>
      <path id="Path_7277" data-name="Path 7277" d="M28.22,3.14a.43.43,0,1,0,.43.424.43.43,0,0,0-.43-.424Z" transform="translate(-11.554 -1.843)" fill="none" stroke="#238495" stroke-linecap="round" stroke-linejoin="round" stroke-width="1"/>
      <path id="Path_7278" data-name="Path 7278" d="M23.72,3.14a.43.43,0,1,0,.43.424.43.43,0,0,0-.43-.424Z" transform="translate(-9.781 -1.843)" fill="none" stroke="#238495" stroke-linecap="round" stroke-linejoin="round" stroke-width="1"/>
      <line id="Line_189" data-name="Line 189" x2="5.285" transform="translate(2.17 12.17)" fill="none" stroke="#238495" stroke-linecap="round" stroke-linejoin="round" stroke-width="1"/>
      <path id="Path_7279" data-name="Path 7279" d="M9.807,10.54v4.236H4.71V10.54Z" transform="translate(-2.462 -4.758)" fill="none" stroke="#238495" stroke-linecap="round" stroke-linejoin="round" stroke-width="1"/>
      <path id="Path_7280" data-name="Path 7280" d="M19.93,20.591V18.973a1.915,1.915,0,0,1,1.9-1.9h.727a1.909,1.909,0,0,1,1.9,1.9v1.618" transform="translate(-8.457 -7.331)" fill="none" stroke="#238495" stroke-linecap="round" stroke-linejoin="round" stroke-width="1"/>
      <line id="Line_190" data-name="Line 190" x2="7.848" transform="translate(9.345 5.812)" fill="none" stroke="#238495" stroke-linecap="round" stroke-linejoin="round" stroke-width="1"/>
      <line id="Line_191" data-name="Line 191" x2="7.848" transform="translate(9.345 7.873)" fill="none" stroke="#238495" stroke-linecap="round" stroke-linejoin="round" stroke-width="1"/>
    </g>
  </g>
</svg>
