<svg xmlns="http://www.w3.org/2000/svg" width="104" height="96" viewBox="0 0 104 96">
  <g id="Group_5408" data-name="Group 5408" transform="translate(-335 -300)">
    <g id="Rectangle_3724" data-name="Rectangle 3724" transform="translate(335 300)" fill="#f1f1f1" stroke="#a2a0a1" stroke-width="0.5" stroke-dasharray="2">
      <rect width="104" height="96" rx="5" stroke="none"/>
      <rect x="0.25" y="0.25" width="103.5" height="95.5" rx="4.75" fill="none"/>
    </g>
    <g id="Group_5101" data-name="Group 5101" transform="translate(367.517 333)">
      <g id="Group_1838" data-name="Group 1838">
        <rect id="Rectangle_692" data-name="Rectangle 692" width="38.967" height="24.705" rx="5.559" transform="translate(0 5.295)" fill="none" stroke="#585858" stroke-linecap="round" stroke-linejoin="round" stroke-width="0.75"/>
        <path id="Path_7440" data-name="Path 7440" d="M777.935-459.725l3.081-5.3h11.347l3.081,5.3" transform="translate(-767.206 465.02)" fill="none" stroke="#585858" stroke-linecap="round" stroke-linejoin="round" stroke-width="0.75"/>
        <line id="Line_561" data-name="Line 561" x2="2.989" transform="translate(4.829 2.638)" fill="none" stroke="#585858" stroke-linecap="round" stroke-linejoin="round" stroke-width="0.75"/>
        <path id="Path_7441" data-name="Path 7441" d="M795.425-439.749a8.631,8.631,0,0,1-8.63,8.63,8.63,8.63,0,0,1-8.63-8.63,8.63,8.63,0,0,1,8.63-8.63A8.63,8.63,0,0,1,795.425-439.749Z" transform="translate(-767.311 457.397)" fill="none" stroke="#585858" stroke-linecap="round" stroke-linejoin="round" stroke-width="0.75"/>
        <path id="Path_7442" data-name="Path 7442" d="M783.64-437.241A5.663,5.663,0,0,1,789.3-442.9" transform="translate(-769.819 454.888)" fill="none" stroke="#585858" stroke-linecap="round" stroke-linejoin="round" stroke-width="0.75"/>
        <path id="Path_7443" data-name="Path 7443" d="M819.544-446.287a2.092,2.092,0,0,1-2.092,2.092,2.092,2.092,0,0,1-2.092-2.092,2.092,2.092,0,0,1,2.092-2.092A2.093,2.093,0,0,1,819.544-446.287Z" transform="translate(-784.35 457.397)" fill="none" stroke="#585858" stroke-linecap="round" stroke-linejoin="round" stroke-width="0.75"/>
      </g>
    </g>
  </g>
</svg>
