<svg xmlns="http://www.w3.org/2000/svg" width="104" height="96" viewBox="0 0 104 96">
  <g id="Rectangle_3724" data-name="Rectangle 3724" fill="#f1f1f1" stroke="#a2a0a1" stroke-width="0.5" stroke-dasharray="2">
    <rect width="104" height="96" rx="5" stroke="none"/>
    <rect x="0.25" y="0.25" width="103.5" height="95.5" rx="4.75" fill="none"/>
  </g>
  <g id="Group_5137" data-name="Group 5137" transform="translate(4019.098 1768.861)">
    <path id="Path_11919" data-name="Path 11919" d="M-3952.7-1731.073v28.711a1.521,1.521,0,0,1-1.5,1.5h-24.829a1.513,1.513,0,0,1-1.5-1.5v-37a1.506,1.506,0,0,1,1.5-1.5h16.542" transform="translate(0 0)" fill="none" stroke="#324c5e" stroke-linecap="round" stroke-linejoin="round" stroke-width="0.75"/>
    <path id="Path_11920" data-name="Path 11920" d="M-3829.378-1731.073h-8.287a1.506,1.506,0,0,1-1.5-1.5v-8.286l9.789,9.787Z" transform="translate(-123.324 0)" fill="none" stroke="#324c5e" stroke-linecap="round" stroke-linejoin="round" stroke-width="0.75"/>
    <line id="Line_1001" data-name="Line 1001" x2="7.913" transform="translate(-3974.531 -1732.815)" fill="none" stroke="#324c5e" stroke-linecap="round" stroke-linejoin="round" stroke-width="0.75"/>
    <line id="Line_1002" data-name="Line 1002" x2="15.826" transform="translate(-3974.531 -1725.327)" fill="none" stroke="#324c5e" stroke-linecap="round" stroke-linejoin="round" stroke-width="0.75"/>
    <line id="Line_1003" data-name="Line 1003" x2="15.826" transform="translate(-3974.531 -1720.955)" fill="none" stroke="#324c5e" stroke-linecap="round" stroke-linejoin="round" stroke-width="0.75"/>
    <line id="Line_1004" data-name="Line 1004" x2="15.826" transform="translate(-3974.531 -1716.584)" fill="none" stroke="#324c5e" stroke-linecap="round" stroke-linejoin="round" stroke-width="0.75"/>
    <line id="Line_1005" data-name="Line 1005" x2="7.913" transform="translate(-3974.531 -1712.213)" fill="none" stroke="#324c5e" stroke-linecap="round" stroke-linejoin="round" stroke-width="0.75"/>
  </g>
</svg>
